<?xml version="1.0" encoding="UTF-8" standalone="no"?>
<!-- Created with Inkscape (http://www.inkscape.org/) -->

<svg
   xmlns:dc="http://purl.org/dc/elements/1.1/"
   xmlns:cc="http://creativecommons.org/ns#"
   xmlns:rdf="http://www.w3.org/1999/02/22-rdf-syntax-ns#"
   xmlns:svg="http://www.w3.org/2000/svg"
   xmlns="http://www.w3.org/2000/svg"
   xmlns:sodipodi="http://sodipodi.sourceforge.net/DTD/sodipodi-0.dtd"
   xmlns:inkscape="http://www.inkscape.org/namespaces/inkscape"
   width="328.42114"
   height="200"
   viewBox="0 0 86.89476 52.916667"
   version="1.1"
   id="svg8"
   inkscape:version="0.92.4 (5da689c313, 2019-01-14)"
   sodipodi:docname="bart.svg">
  <defs
     id="defs2">
	
	
</defs>
  <sodipodi:namedview
     id="base"
     pagecolor="#ffffff"
     bordercolor="#666666"
     borderopacity="1.0"
     inkscape:pageopacity="0.0"
     inkscape:pageshadow="2"
     inkscape:zoom="2.8284271"
     inkscape:cx="181.47571"
     inkscape:cy="152.61434"
     inkscape:document-units="mm"
     inkscape:current-layer="layer1"
     showgrid="false"
     inkscape:window-width="1920"
     inkscape:window-height="1017"
     inkscape:window-x="-8"
     inkscape:window-y="176"
     inkscape:window-maximized="1"
     units="px" />
  <metadata
     id="metadata5">
    <rdf:RDF>
      <cc:Work
         rdf:about="">
        <dc:format>image/svg+xml</dc:format>
        <dc:type
           rdf:resource="http://purl.org/dc/dcmitype/StillImage" />
        <dc:title></dc:title>
      </cc:Work>
    </rdf:RDF>
  </metadata>
  <g
     inkscape:label="Layer 1"
     inkscape:groupmode="layer"
     id="layer1"
     transform="translate(-93.614813,-159.24068)">
    <g
       id="g829"
       transform="matrix(1.2180712,0,0,1.2180712,75.01243,141.28996)">
		
		<polygon
   points="82.32,16.894 80.291,16.894 80.291,15.083 86.61,15.083 86.61,16.894 84.581,16.894 84.581,21.978 82.32,21.978 "
   id="polygon817" />

		<path
   inkscape:connector-curvature="0"
   d="m 38.388,19.096 v 1.271 h 0.984 c 0.558,0 0.979,-0.115 0.979,-0.632 0,-0.604 -0.526,-0.642 -1.245,-0.642 h -0.718 z m 0,-2.404 v 1.148 h 0.937 c 0.45,0 0.776,-0.2 0.776,-0.604 0,-0.537 -0.44,-0.546 -0.919,-0.546 z m -2.261,5.286 v -6.895 h 3.294 c 1.551,0 2.786,0.364 2.786,1.733 0,0.709 -0.459,1.226 -0.898,1.503 0.746,0.192 1.148,0.833 1.148,1.58 0,1.542 -1.178,2.078 -2.969,2.078 h -3.361 z"
   id="path819" />

		<path
   inkscape:connector-curvature="0"
   d="m 53.675,17.162 -0.697,2.469 h 1.428 z m -3.599,4.816 2.471,-6.895 h 2.298 l 2.472,6.895 h -2.251 l -0.269,-0.909 h -2.251 l -0.259,0.909 z"
   id="path821" />

		<path
   inkscape:connector-curvature="0"
   d="m 67.73,18.061 h 0.892 c 0.698,0 1.07,-0.172 1.07,-0.65 0,-0.488 -0.384,-0.718 -0.909,-0.718 H 67.73 Z m 0,1.513 v 2.404 h -2.261 v -6.895 h 3.257 c 2.298,0 3.054,0.623 3.054,1.962 0,0.795 -0.355,1.467 -1.159,1.687 0.729,0.268 1.169,0.439 1.169,1.828 0,0.899 -0.027,1.207 0.24,1.207 v 0.211 h -2.29 c -0.057,-0.153 -0.113,-0.594 -0.113,-1.207 0,-0.9 -0.153,-1.197 -1.207,-1.197 z"
   id="path823" />

		<path
   style="fill:#0099d8"
   inkscape:connector-curvature="0"
   d="m 74.332,27.302 c 0,0 0,1.196 0,1.792 -2.5,-1.438 -5.694,-2.163 -9.521,-2.15 h -0.179 c -2.016,-0.005 -8.597,0.291 -13.172,4.059 3.236,2.587 5.344,6.391 5.344,11.5 0,5.337 -2.356,8.805 -5.437,11.067 0.975,0.922 2.094,1.719 3.365,2.376 3.896,2.019 8.176,2.234 9.831,2.234 2.74,0 4.957,-0.192 9.77,-2.612 0,0.526 0,1.655 0,1.655 H 86.485 V 27.302 Z m -8.661,23.424 c -4.651,0 -8.425,-3.787 -8.425,-8.461 0,-4.676 3.772,-8.465 8.425,-8.465 4.653,0 8.425,3.789 8.425,8.465 0,4.674 -3.772,8.461 -8.425,8.461 z"
   id="path825" />

		<path
   inkscape:connector-curvature="0"
   d="m 38.131,26.825 c -7.659,0 -9.813,1.915 -10.891,2.513 0,-2.393 0,-14.601 0,-14.601 H 15.272 V 56.985 H 26.88 v -2.036 c 3.95,2.274 8.378,2.632 11.25,2.632 4.429,0 18.67,-1.914 18.67,-15.078 C 56.802,31.852 47.706,26.825 38.131,26.825 Z m 0.053,23.901 c -4.675,0 -8.463,-3.787 -8.463,-8.461 0,-4.676 3.788,-8.465 8.463,-8.465 4.674,0 8.463,3.789 8.463,8.465 0,4.674 -3.789,8.461 -8.463,8.461 z"
   id="path827" />

	</g>
  </g>
</svg>
