<?xml version="1.0" encoding="iso-8859-1"?>
<!-- Generator: Adobe Illustrator 19.0.0, SVG Export Plug-In . SVG Version: 6.00 Build 0)  -->
<svg version="1.1" id="Capa_1" xmlns="http://www.w3.org/2000/svg" xmlns:xlink="http://www.w3.org/1999/xlink" x="0px" y="0px"
	 viewBox="0 0 451.6 451.6" style="enable-background:new 0 0 451.6 451.6;" xml:space="preserve">
<path style="fill:#FFCE57;" d="M426.8,119h-63.6h-28.4c-41.6,0-114.4,0-121.6,0H24.4c-10,0-18.4,8.4-18.4,18.4v140.8
	c0,10,8.4,18.4,18.4,18.4H80h254.8h10h30h41.6h10.8c10,0,18.4-8.4,18.4-18.4V137.4C445.2,127.4,436.8,119,426.8,119z"/>
<path style="fill:#FFD985;" d="M32.8,278.2V137.4c0-10,8.4-18.4,18.4-18.4H24.4c-10,0-18.4,8.4-18.4,18.4v140.8
	c0,10,8.4,18.4,18.4,18.4h26.8C41.2,296.6,32.8,288.2,32.8,278.2z"/>
<path id="SVGCleanerId_0" style="fill:#A7D9E8;" d="M8,148.6c0,0-3.2-29.2,20.4-29.2s316.4,0,316.4,0H430c0,0,14.4,2.4,14.4,29.2
	s0,126.8,0,126.8L434,265c0,0-7.2-57.6-60.4-57.6s-368,0-368,0L8,148.6z"/>
<g>
	<path id="SVGCleanerId_0_1_" style="fill:#A7D9E8;" d="M8,148.6c0,0-3.2-29.2,20.4-29.2s316.4,0,316.4,0H430
		c0,0,14.4,2.4,14.4,29.2s0,126.8,0,126.8L434,265c0,0-7.2-57.6-60.4-57.6s-368,0-368,0L8,148.6z"/>
</g>
<path style="fill:#C3DFE5;" d="M32.8,137.4c0-8.8,6.4-16.4,14.8-18c-9.2,0-16,0-18.8,0c-23.6,0-20.4,29.2-20.4,29.2L6,207.8
	c0,0,10,0,26.8,0V137.4z"/>
<path style="fill:#424953;" d="M426.8,112.6h-63.6h-28.4h-79.6l0,0l0,0h-62l0,0l0,0h-62.4l0,0l0,0h-62l0,0l0,0h-44
	C11.2,112.6,0,123.8,0,137.4v140.8C0,291.8,11.2,303,24.8,303h54.8c2.8,20.4,20.4,36,41.2,36c21.2,0,38.4-15.6,41.2-36h172.8h5.2
	c4,18.8,20.8,32.8,40.8,32.8s36.8-14,40.8-32.8h5.2c13.6,0,24.8-11.2,24.8-24.8V137.4C451.2,123.8,440.4,112.6,426.8,112.6z
	 M438.8,137.4v121.2c-4-17.2-10.8-30.8-21.2-40.8c-11.2-10.8-23.2-14.4-30.4-15.6v-76.8h39.6C433.2,125.4,438.8,130.6,438.8,137.4z
	 M363.2,125.4h11.2v76h-51.6v-64c0-6.8,5.6-12,12-12H363.2z M137.2,201.4v-76h49.6v76H137.2z M74.8,201.4v-76h49.6v76H74.8z
	 M199.2,125.4h49.6v76h-49.6V125.4z M261.6,125.4h51.6c-2,3.6-3.2,7.6-3.2,12v64h-48.4V125.4z M24.4,125.4H62v76H12.4v-64
	C12.4,130.6,18,125.4,24.4,125.4z M12.4,278.2v-64H310v64c0,4.4,1.2,8.4,3.2,12H161.6c-3.2-19.6-20.4-34.8-41.2-34.8
	s-38,15.2-41.2,34.8H24.4C18,290.2,12.4,285,12.4,278.2z M422.4,290.2c-2-21.2-19.6-38-41.6-38c-21.6,0-39.6,16.8-41.6,38h-4.4
	c-6.8,0-12-5.6-12-12v-64h58c0,0,14.8-0.4,28,12.4s20.4,34.4,20.8,63.2c-0.8,0.4-2,0.4-2.8,0.4H422.4z"/>
<g>
	<circle style="fill:#E6E9EE;" cx="120.4" cy="297.4" r="18.4"/>
	<circle style="fill:#E6E9EE;" cx="380.8" cy="293.8" r="18.4"/>
</g>
<g>
</g>
<g>
</g>
<g>
</g>
<g>
</g>
<g>
</g>
<g>
</g>
<g>
</g>
<g>
</g>
<g>
</g>
<g>
</g>
<g>
</g>
<g>
</g>
<g>
</g>
<g>
</g>
<g>
</g>
</svg>
