<?xml version="1.0" encoding="iso-8859-1"?>
<!-- Generator: Adobe Illustrator 19.0.0, SVG Export Plug-In . SVG Version: 6.00 Build 0)  -->
<svg version="1.1" id="Capa_1" xmlns="http://www.w3.org/2000/svg" xmlns:xlink="http://www.w3.org/1999/xlink" x="0px" y="0px"
	 viewBox="0 0 425.611 425.611" style="enable-background:new 0 0 425.611 425.611;" xml:space="preserve">
<g>
	<g>
		<path d="M402.4,106.006h-60h-26.8h-74.8H182h-58.8H64.8H23.2c-12.8,0-23.2,10.4-23.2,23.2v133.2c0,12.8,10.4,23.2,23.2,23.2h51.6
			c2.8,19.2,19.2,34,39.2,34s36.4-14.8,38.8-34H316h4.8c4,17.6,19.6,30.8,38.4,30.8s34.4-13.2,38.4-30.8h4.8
			c12.8,0,23.2-10.4,23.2-23.2v-133.2C426,116.406,415.6,106.006,402.4,106.006z M188,118.006h46.8v72H188V118.006z M129.2,118.006
			H176v72h-46.8V118.006z M70.4,118.006h46.8v72H70.4V118.006z M11.6,129.206c0-6,5.2-11.2,11.6-11.2h35.6v72H11.6V129.206z
			 M113.6,307.606c-15.2,0-27.6-12.4-27.6-27.6s12.4-27.6,27.6-27.6s27.6,12.4,27.6,27.6S128.8,307.606,113.6,307.606z
			 M152.4,273.206c-3.2-18.8-19.2-32.8-38.8-32.8c-19.6,0.4-35.6,14.8-38.8,33.2h-52c-6.4,0-11.2-5.2-11.2-11.2v-60.8h280.8v60.4
			c0,4,1.2,8,3.2,11.2H152.4z M292.4,129.206v60.4h-45.6v-71.6h48.8C293.6,121.206,292.4,125.206,292.4,129.206z M304.4,129.206
			c0-6.4,5.2-11.2,11.2-11.2h27.2h10.4v72h-48.8V129.206z M359.2,304.806c-15.2,0-27.6-12.4-27.6-27.6s12.4-27.6,27.6-27.6
			s27.6,12.4,27.6,27.6S374.4,304.806,359.2,304.806z M402.8,273.606h-4.4c-1.6-20-18.8-36-39.2-36s-37.6,16-39.2,36h-4
			c-6.4,0-11.2-5.2-11.2-11.2v-60.8h54.8c0,0,14-0.4,26.4,12c12.4,12.4,19.2,32.4,19.6,59.6
			C404.8,273.606,404,273.606,402.8,273.606z M414,243.606c-3.6-16.4-10.4-29.2-20-38.4c-10.4-10.4-22-13.6-28.8-14.8v-72.4h37.2
			c6.4,0,11.6,5.2,11.6,11.2V243.606z"/>
	</g>
</g>
<g>
</g>
<g>
</g>
<g>
</g>
<g>
</g>
<g>
</g>
<g>
</g>
<g>
</g>
<g>
</g>
<g>
</g>
<g>
</g>
<g>
</g>
<g>
</g>
<g>
</g>
<g>
</g>
<g>
</g>
</svg>
