<?xml version="1.0" encoding="iso-8859-1"?>
<!-- Generator: Adobe Illustrator 19.0.0, SVG Export Plug-In . SVG Version: 6.00 Build 0)  -->
<svg version="1.1" id="Capa_1" xmlns="http://www.w3.org/2000/svg" xmlns:xlink="http://www.w3.org/1999/xlink" x="0px" y="0px"
	 viewBox="0 0 414.6 414.6" style="enable-background:new 0 0 414.6 414.6;" xml:space="preserve">
<g>
	<path style="fill:#6598D1;" d="M250.7,289h74.8c0,0,0-74.8-52.8-96C272.7,193,267.1,267.4,250.7,289z"/>
	<path style="fill:#6598D1;" d="M163.5,289H88.7c0,0,0-74.8,52.8-96C141.5,193,142.3,246.6,163.5,289z"/>
</g>
<g>
	<path style="fill:#7EA8CE;" d="M272.7,193c0,0-5.6,74.4-22,96h22c12-16,18.4-60.4,20.8-82.8C287.9,201,280.7,196.2,272.7,193z"/>
	<path style="fill:#7EA8CE;" d="M142.3,206.6c-0.8-8.4-0.8-13.6-0.8-13.6c-52.8,21.2-52.8,96-52.8,96h22.4
		C111.1,289,111.1,235.8,142.3,206.6z"/>
</g>
<path style="fill:#EE6E55;" d="M253.5,289c0,0,65.2-170.8-46.4-282.4c-111.6,111.6-46,282.4-46,282.4H253.5z"/>
<path style="fill:#ED8577;" d="M219.9,20.2c-4-4.8-8-9.2-12.8-14c-111.6,112-46,282.8-46,282.8h25.2
	C186.3,289,126.3,131.8,219.9,20.2z"/>
<path style="fill:#A7D9E8;" d="M240.7,128.6c0,18.4-14.8,33.2-33.2,33.2c-18.4,0-33.2-14.8-33.2-33.2s14.8-33.2,33.2-33.2
	S240.7,110.2,240.7,128.6z"/>
<path style="fill:#C3DFE5;" d="M191.9,128.6c0-15.2,10.4-28,24.4-32c-2.8-0.8-6-1.2-9.2-1.2c-18.4,0-33.2,14.8-33.2,33.2
	s14.8,33.2,33.2,33.2c3.2,0,6-0.4,8.8-1.2C202.3,156.6,191.9,144.2,191.9,128.6z"/>
<path style="fill:#FFCE57;" d="M207.1,408.2c-42-42-33.6-92.8-33.6-92.8h33.6h33.6C241.1,315.4,249.5,366.2,207.1,408.2z"/>
<path style="fill:#FFD985;" d="M195.1,315.4h-21.2c0,0-8.4,50.8,33.6,93.2c4-4,7.6-8,10.8-12.4C187.9,356.6,195.1,315.4,195.1,315.4
	z"/>
<g>
	<path style="fill:#424953;" d="M278.3,188.6c2-58-10-130-66.8-186.8c-2.4-2.4-6.4-2.4-8.8,0c-56.4,56.8-68.8,128.8-66.4,186.8
		c-53.2,24-53.6,97.2-53.6,100.4c0,3.6,2.8,6.4,6.4,6.4h72h2.8h86.8h3.2h71.6c3.6,0,6.4-2.8,6.4-6.4
		C331.9,285.8,331.1,212.6,278.3,188.6z M207.1,15.4c92.4,98,50.4,241.2,42,267.2h-84C156.7,256.6,115.1,113.4,207.1,15.4z
		 M137.1,202.2c2.8,36.8,10.8,66.4,15.2,80.4H95.5C96.7,265.8,103.5,220.6,137.1,202.2z M262.3,282.6c4.4-14,12.4-43.6,15.2-80.4
		c33.2,18.8,39.6,63.6,41.2,80.4H262.3z"/>
	<path style="fill:#424953;" d="M207.1,168.6c22,0,40-18,40-40s-18-40-40-40s-40,18-40,40S185.1,168.6,207.1,168.6z M207.1,101.4
		c15.2,0,27.6,12.4,27.6,27.6c0,15.2-12.4,27.6-27.6,27.6c-15.2,0-27.6-12.4-27.6-27.6C179.9,113.4,192.3,101.4,207.1,101.4z"/>
	<path style="fill:#424953;" d="M241.1,309h-67.6c-3.2,0-5.6,2.4-6.4,5.2c-0.4,2-8.8,54.4,35.6,98.4c1.2,1.2,2.8,2,4.4,2
		c1.6,0,3.2-0.8,4.4-2c44-44,36-96.4,35.6-98.4C246.7,311.4,244.3,309,241.1,309z M207.1,399c-27.2-30.4-28.8-64.8-28-77.6h56
		C235.9,334.6,234.7,368.6,207.1,399z"/>
</g>
<g>
</g>
<g>
</g>
<g>
</g>
<g>
</g>
<g>
</g>
<g>
</g>
<g>
</g>
<g>
</g>
<g>
</g>
<g>
</g>
<g>
</g>
<g>
</g>
<g>
</g>
<g>
</g>
<g>
</g>
</svg>
