<?xml version="1.0" encoding="iso-8859-1"?>
<!-- Generator: Adobe Illustrator 19.0.0, SVG Export Plug-In . SVG Version: 6.00 Build 0)  -->
<svg version="1.1" id="Capa_1" xmlns="http://www.w3.org/2000/svg" xmlns:xlink="http://www.w3.org/1999/xlink" x="0px" y="0px"
	 viewBox="0 0 406.2 406.2" style="enable-background:new 0 0 406.2 406.2;" xml:space="preserve">
<g>
	<g>
		<path d="M203.1,83.4c-20.8,0-38,16.8-38,38c0.4,21.2,17.2,38,38,38s38-16.8,38-38C241.1,100.6,224.3,83.4,203.1,83.4z
			 M203.1,147.8c-14.4,0-26-11.6-26-26c0.4-14.4,12-26,26-26c14.4,0,26,11.6,26,26C229.1,136.2,217.5,147.8,203.1,147.8z"/>
	</g>
</g>
<g>
	<g>
		<path d="M241.5,311.4c-0.8-2.4-3.6-4.8-6.4-4.8h-63.6c-2.8,0-5.6,2-6,4.8c-0.4,2-8,51.6,33.6,93.2c1.2,1.2,2.8,1.6,4.4,1.6
			c1.6,0,3.2-0.4,4.4-1.6C249.5,363,241.9,313.8,241.5,311.4z M203.1,391.8c-25.6-28.8-27.2-61.2-26.4-73.2h52.8
			C230.3,331,229.1,363,203.1,391.8z"/>
	</g>
</g>
<g>
	<g>
		<path d="M270.3,178.2c2-54.8-9.2-122.8-62.8-176.4c-2.4-2.4-6.4-2.4-8.4,0c-53.6,53.6-64.8,121.6-62.8,176.4
			c-50,22.4-50.8,92-50.8,94.8c0,3.2,2.8,6,6,6h68h2.8h82h2.8h67.6c3.2,0,6-2.8,6-6S319.9,201,270.3,178.2z M97.9,267
			c1.2-16,7.6-58.4,39.2-76c2.8,34.8,10.4,62.8,14.4,76H97.9z M242.7,267h-78.8c-8.4-24.4-47.6-159.6,39.2-252.4
			C290.3,107.4,251.1,242.6,242.7,267z M255.5,267c4-13.2,11.6-41.2,14.4-75.6c31.2,17.6,37.6,60,38.8,75.6H255.5z"/>
	</g>
</g>
<g>
</g>
<g>
</g>
<g>
</g>
<g>
</g>
<g>
</g>
<g>
</g>
<g>
</g>
<g>
</g>
<g>
</g>
<g>
</g>
<g>
</g>
<g>
</g>
<g>
</g>
<g>
</g>
<g>
</g>
</svg>
