<?xml version="1.0" encoding="iso-8859-1"?>
<!-- Generator: Adobe Illustrator 19.0.0, SVG Export Plug-In . SVG Version: 6.00 Build 0)  -->
<svg version="1.1" id="Capa_1" xmlns="http://www.w3.org/2000/svg" xmlns:xlink="http://www.w3.org/1999/xlink" x="0px" y="0px"
	 viewBox="0 0 366.333 366.333" style="enable-background:new 0 0 366.333 366.333;" xml:space="preserve">
<g>
	<g>
		<path d="M365.133,197.767c-1.6-1.6-32-39.2-98.4-40.4c-6.4-11.2-30.8-47.6-70.4-47.6h-1.2l-17.6-33.6c-1.2-2-3.2-3.2-5.2-3.2
			h-27.2c-2.4,0-4.4,1.2-5.2,3.2l-16,33.2h-5.2c-1.6,0-39.2-2.8-78.4,47.6h-30.4c-2.8,0-5.2,2-6,4.8c-0.4,2.4-12.4,60,7.6,84.8
			c6.4,7.6,14.8,11.6,25.2,11.6h8.4c2.8,20,20,35.2,40.8,35.2c20.8,0,38-15.2,40.8-35.2h116.8c2.8,20,20,35.2,40.8,35.2
			s38-15.2,40.8-35.2h35.2c3.2,0,6-2.8,6-6v-50.8C366.333,200.167,365.933,198.567,365.133,197.767z M196.333,121.367
			c28,0,47.2,23.2,56,36h-86.8v-36H196.333z M149.133,84.967h19.6l12.8,24.8h-22h-22.4L149.133,84.967z M118.333,121.367h35.6v36
			h-98C88.333,120.167,117.533,121.367,118.333,121.367z M85.933,281.767c-16,0-29.2-13.2-29.2-29.2s13.2-29.2,29.2-29.2
			s29.2,13.2,29.2,29.2C115.533,268.567,102.333,281.767,85.933,281.767z M284.333,281.767c-16,0-29.2-13.2-29.2-29.2
			s13.2-29.2,29.2-29.2s29.2,13.2,29.2,29.2C313.533,268.567,300.733,281.767,284.333,281.767z M354.333,246.567h-29.2
			c-2.8-20-20-35.2-40.8-35.2s-38,15.2-40.8,35.2h-116.8c-2.8-20-20-35.2-40.8-35.2c-20.8,0-38,15.2-40.8,35.2h-8.4
			c-6.8,0-12-2.4-16-7.2c-12.4-15.6-9.2-52-6-70h28.4h220c55.6,0,84.8,27.6,91.2,34.4V246.567z"/>
	</g>
</g>
<g>
</g>
<g>
</g>
<g>
</g>
<g>
</g>
<g>
</g>
<g>
</g>
<g>
</g>
<g>
</g>
<g>
</g>
<g>
</g>
<g>
</g>
<g>
</g>
<g>
</g>
<g>
</g>
<g>
</g>
</svg>
