<?xml version="1.0" encoding="iso-8859-1"?>
<!-- Generator: Adobe Illustrator 19.0.0, SVG Export Plug-In . SVG Version: 6.00 Build 0)  -->
<svg version="1.1" id="Capa_1" xmlns="http://www.w3.org/2000/svg" xmlns:xlink="http://www.w3.org/1999/xlink" x="0px" y="0px"
	 viewBox="0 0 411.2 411.2" style="enable-background:new 0 0 411.2 411.2;" xml:space="preserve">
<g>
	<g>
		<path d="M324.8,242c-2.8-2.8-5.2-5.2-7.6-7.6c-35.2-35.2-107.6-31.6-110.4-31.6h-174c-3.2,0-6,2.8-6,6s2.8,6,6,6H204l30,39.2
			c0.4,0.8,14,19.2,34.4,20.4c6,0.4,16,0.4,26.8,0.4c20.4,0,42.8-0.4,44-0.4h0.4c11.6,13.2,20.8,26.4,17.2,34.4
			c-2,4.8-11.6,13.2-52.8,13.2H36.8c-3.2,0-6,2.8-6,6c0,3.2,2.8,6,6,6H304c38,0,58.4-6.8,64-20.8C376.4,292.4,349.2,265.6,324.8,242
			z M269.2,262c-14.8-0.8-25.2-15.2-25.6-15.6L219.2,214c21.2,0.4,66.4,4.8,89.6,28c2.4,2.4,5.2,5.2,8,7.6c3.6,3.6,8,7.6,12,12
			C312.8,262.4,282,262.8,269.2,262z"/>
	</g>
</g>
<g>
	<g>
		<path d="M405.2,344.8H6c-3.2,0-6,2.8-6,6c0,3.2,2.8,6,6,6h399.2c3.2,0,6-2.8,6-6S408.4,344.8,405.2,344.8z"/>
	</g>
</g>
<g>
	<g>
		<path d="M210.8,268.4l-35.2-40.8c-1.2-1.2-2.8-2-4.4-2H36.8c-3.2,0-6,2.8-6,6v41.6c0,3.2,2.8,6,6,6h170c3.2,0,6-2.8,6-6
			C212.8,271.2,212,269.6,210.8,268.4z M42.8,267.2v-29.6h26.8l25.2,29.6H42.8z M110.4,267.2l-25.2-29.6h34l25.2,29.6H110.4z
			 M160,267.2l-25.2-29.6h33.6l25.6,29.6H160z"/>
	</g>
</g>
<g>
	<g>
		<path d="M266,92h-54.8c-2.8-21.2-21.2-37.6-42.8-37.6c-22.8,0-41.6,18-43.2,40.4c-4.8-2-10-2.8-15.6-2.8c-22,0-40,16.4-42.8,37.6
			H18.4c-3.2,0-6,2.8-6,6c0,2.8,2.8,5.6,6,5.6H72c3.2,0,6-2.8,6-6c0-17.2,14-31.6,31.6-31.6c17.2,0,31.6,14,31.6,31.6
			c0,3.2,2.8,6,6,6h60c3.2,0,6-2.8,6-6c0-3.2-2.8-6-6-6h-54.4c-1.6-11.6-8-21.6-16.8-28.4c0.4-0.8,0.8-2,0.8-2.8
			c0-17.2,14-31.6,31.6-31.6c17.2,0,31.6,14,31.6,31.6c0,3.2,2.8,6,6,6h60c3.2,0,6-2.8,6-6C272,94.8,269.2,92,266,92z"/>
	</g>
</g>
<g>
	<g>
		<path d="M160.8,159.2H18.4c-3.2,0-6,2.8-6,6c0,3.2,2.8,6,6,6h142.4c3.2,0,6-2.8,6-6C166.8,162,164,159.2,160.8,159.2z"/>
	</g>
</g>
<g>
</g>
<g>
</g>
<g>
</g>
<g>
</g>
<g>
</g>
<g>
</g>
<g>
</g>
<g>
</g>
<g>
</g>
<g>
</g>
<g>
</g>
<g>
</g>
<g>
</g>
<g>
</g>
<g>
</g>
</svg>
